<?xml version="1.0" encoding="utf-8"?>
<!-- Generator: Adobe Illustrator 16.0.0, SVG Export Plug-In . SVG Version: 6.00 Build 0)  -->
<!DOCTYPE svg PUBLIC "-//W3C//DTD SVG 1.1//EN" "http://www.w3.org/Graphics/SVG/1.1/DTD/svg11.dtd">
<svg version="1.1" id="Layer_1" xmlns="http://www.w3.org/2000/svg" xmlns:xlink="http://www.w3.org/1999/xlink" x="0px" y="0px"
	 width="384px" height="63.572px" viewBox="0 0 384 63.572" enable-background="new 0 0 384 63.572" xml:space="preserve">
<g>
	<g>
		<g>
			<path fill="#FFFFFF" d="M46.96,43.523h-8.846V20.08h8.846C62.233,20.146,62.233,43.458,46.96,43.523z M44.112,38.065h2.848
				c7.468,0,7.468-12.526,0-12.526h-2.848V38.065z"/>
			<path fill="#FFFFFF" d="M72.919,38.267v5.257H61.027v-5.257h2.978V25.305h-2.742v-5.226h11.42v5.226h-2.749v12.962H72.919z"/>
			<path fill="#FFFFFF" d="M87.416,19.78c4.725,0.033,9.648,2.477,10.786,8.306h-5.894c-0.972-2.011-2.51-2.814-4.892-2.814
				c-3.783,0-5.826,2.947-5.826,6.532c0,3.884,2.277,6.432,5.826,6.432c2.414,0,3.954-0.637,5.024-2.88h-4.991v-5.193h11.088
				c0.135,2.346,0.135,4.589-0.668,6.865c-1.677,4.894-6.129,6.769-10.451,6.769c-5.962,0-11.992-3.987-12.023-11.991
				C75.425,23.797,81.455,19.78,87.416,19.78z"/>
			<path fill="#FFFFFF" d="M113.242,38.267v5.257H101.35v-5.257h2.98V25.305h-2.746v-5.226h11.422v5.226h-2.748v12.962H113.242z"/>
			<path fill="#FFFFFF" d="M114.848,25.44c0-1.811,0-3.583,0-5.36h17.415c0,1.777,0,3.55,0,5.36h-5.726v18.083
				c-1.977,0-3.954,0-5.927,0V25.44H114.848z"/>
			<path fill="#FFFFFF" d="M147.94,40.578h-9.241l-1.375,2.945h-5.863v-0.871l10.552-22.872h2.579l10.583,22.872v0.871h-5.859
				L147.94,40.578z M143.283,29.29l-2.646,6.163h5.36L143.283,29.29z"/>
			<path fill="#FFFFFF" d="M164.255,38.132h8.504c0,2.009,0,3.384,0,5.392c-4.819,0-9.777,0-14.534,0V20.08c2.005,0,3.985,0,6.03,0
				C164.255,32.205,164.255,28.152,164.255,38.132z"/>
		</g>
		<g>
			<path fill="#FFFFFF" d="M190.175,35.825v7.604c-2.01,0-4.052,0-6.097,0V19.984c4.79,0,9.812,0,14.604,0c0,1.976,0,3.35,0,5.357
				h-8.508v5.125h7.536c0,2.011,0,3.284,0,5.357L190.175,35.825L190.175,35.825z"/>
			<path fill="#FFFFFF" d="M217.938,25.342c-3.482,0-5.228,0-8.672,0v3.317h7.967c0,1.774,0,3.551,0,5.327h-7.967
				c0,1.37,0,2.711,0,4.117c3.445,0,5.455,0,8.977,0c0,1.739,0,3.548,0,5.325c-5.494,0-9.512,0-14.939,0c0-7.836,0-15.675,0-23.445
				c5.428,0,9.145,0,14.637,0C217.938,21.726,217.938,23.534,217.938,25.342z"/>
			<path fill="#FFFFFF" d="M238.038,25.342c-3.484,0-5.227,0-8.678,0v3.317h7.973c0,1.774,0,3.551,0,5.327h-7.973
				c0,1.37,0,2.711,0,4.117c3.451,0,5.459,0,8.979,0c0,1.739,0,3.548,0,5.325c-5.494,0-9.512,0-14.938,0c0-7.836,0-15.675,0-23.445
				c5.427,0,9.143,0,14.639,0C238.038,21.726,238.038,23.534,238.038,25.342z"/>
			<path fill="#FFFFFF" d="M249.49,38.037h8.506c0,2.009,0,3.384,0,5.394c-4.819,0-9.777,0-14.535,0V19.984c2.008,0,3.988,0,6.029,0
				C249.49,32.107,249.49,28.056,249.49,38.037z"/>
			<path fill="#FFFFFF" d="M272.065,38.171v5.26h-11.892v-5.26h2.979v-12.96h-2.743v-5.227h11.422v5.227h-2.748v12.96H272.065z"/>
			<path fill="#FFFFFF" d="M282.181,31.909v11.521c-2.078,0-4.154,0-6.201,0V19.882h2.181l11.854,11.592v-11.49
				c2.043,0,4.088,0,6.129,0v23.48h-2.146L282.181,31.909z"/>
			<path fill="#FFFFFF" d="M312.69,19.681c4.723,0.035,9.648,2.48,10.785,8.307h-5.895c-0.971-2.007-2.514-2.812-4.891-2.812
				c-3.783,0-5.826,2.947-5.826,6.533c0,3.887,2.277,6.428,5.826,6.428c2.41,0,3.953-0.635,5.023-2.877h-4.988V30.07h11.086
				c0.131,2.342,0.131,4.585-0.672,6.86c-1.674,4.891-6.127,6.768-10.449,6.768c-5.963,0-11.989-3.984-12.021-11.989
				C300.702,23.702,306.726,19.681,312.69,19.681z"/>
			<path fill="#FFFFFF" d="M340.056,36.528c0-1.641-1.945-2.008-4.285-2.143c-5.093-0.369-8.443-2.11-8.511-7.203
				c-0.202-10.113,18.019-10.113,17.886,0c-2.109,0-3.65,0-5.694,0c0-3.111-6.293-2.847-6.498-0.064
				c-0.132,1.775,1.606,2.142,3.72,2.376c4.653,0.502,9.211,1.206,9.211,7.063c0,9.849-19.091,10.018-18.957-0.299
				c2.008,0,3.75,0,5.792,0C332.719,39.24,340.056,39.274,340.056,36.528z"/>
		</g>
	</g>
	<g>
		<path fill="#FFFFFF" d="M384,63.572H0V0h384V63.572z M1.249,62.322H382.75V1.249H1.249V62.322z"/>
	</g>
</g>
</svg>
